The King of Marvin Gardens (1972)

Director: Bob Rafelson

The King of Marvin Gardens is a 1972 American drama film. It stars Jack Nicholson, Bruce Dern, Ellen Burstyn and Scatman Crothers. It is one of several collaborations between Nicholson and director Bob Rafelson. The majority of the film is set in a wintry Atlantic City, New Jersey, with the plot and the cinematography by László Kovács. The title alludes to one of the properties in the game Monopoly (original version).

Jack Nicholson and Bruce Dern play estranged siblings David and Jason, the former a depressive late-night-radio talk show host, the latter an extroverted con man. When Jason drags his younger brother and his bitter aging beauty-queen squeeze (Burstyn) to a dreary Atlantic City and into a real-estate scam, events spiral toward tragedy.

Media Info:
General
Complete name                    : J:\Seeding\The King of Marvin Gardens (1972)[DVDRip][big_dad_e™]\The King of Marvin Gardens (1972)[DVDRip][big_dad_e™].avi
Format                           : AVI
Format/Info                      : Audio Video Interleave
Format profile                   : OpenDML
File size                        : 1.23 GiB
Duration                         : 1h 43mn
Overall bit rate                 : 1 701 Kbps
Movie name                       : DVD_VIDEO.Title1.DVDRip
Writing application              : Lavf52.78.4
Original source form/Name        : DVD_VIDEO

Video
ID                               : 0
Format                           : MPEG-4 Visual
Format profile                   : Advanced Simple@L5
Format settings, BVOP            : 2
Format settings, QPel            : No
Format settings, GMC             : No warppoints
Format settings, Matrix          : Default (H.263)
Muxing mode                      : Packed bitstream
Codec ID                         : XVID
Codec ID/Hint                    : XviD
Duration                         : 1h 43mn
Bit rate                         : 1 366 Kbps
Width                            : 720 pixels
Height                           : 396 pixels
Display aspect ratio             : 16:9
Frame rate                       : 23.976 fps
Color space                      : YUV
Chroma subsampling               : 4:2:0
Bit depth                        : 8 bits
Scan type                        : Progressive
Compression mode                 : Lossy
Bits/(Pixel*Frame)               : 0.200
Stream size                      : 1 012 MiB (80%)
Writing library                  : XviD 1.2.1 (UTC 2008-12-04)

Audio
ID                               : 1
Format                           : MPEG Audio
Format version                   : Version 1
Format profile                   : Layer 3
Mode                             : Joint stereo
Mode extension                   : MS Stereo
Codec ID                         : 55
Codec ID/Hint                    : MP3
Duration                         : 1h 43mn
Bit rate mode                    : Constant
Bit rate                         : 320 Kbps
Channel(s)                       : 2 channels
Sampling rate                    : 48.0 KHz
Compression mode                 : Lossy
Stream size                      : 48.5 MiB (4%)
Alignment                        : Aligned on interleaves
Interleave, duration             : 117 ms (2.81 video frames)
Interleave, preload duration     : 24 ms
Writing library                  : LAME3.98.4

File Scan:
Malwarebytes' Anti-Malware 1.50.1.1100
www.malwarebytes.org

Database version: 6358
4/13/2011 10:00:35 PM
mbam-log-2011-04-13 (22-00-35).txt

Scan type: Quick scan
Objects scanned: 5
Time elapsed: 37 second(s)

Memory Processes Infected: 0
Memory Modules Infected: 0
Registry Keys Infected: 0
Registry Values Infected: 0
Registry Data Items Infected: 0
Folders Infected: 0
Files Infected: 0

Memory Processes Infected:
(No malicious items detected)

Memory Modules Infected:
(No malicious items detected)

Registry Keys Infected:
(No malicious items detected)

Registry Values Infected:
(No malicious items detected)

Registry Data Items Infected:
(No malicious items detected)

Folders Infected:
(No malicious items detected)

Files Infected:
(No malicious items detected)

When using TPB please read these important notes:
  
01- Anti-malware apps may warn about keygens, patches, cracks, etc., because of 
    their capabilities, (generating codes, etc.). Sometimes they're added to 
    the virus/spyware database and will be detected as malware. If you don't trust
    the keygens, patches, cracks, etc., don't use them. 
    
02- Before running .exe-files, keygens, patches, cracks, etc., always check first 
    if they can be unpacked. Often some third party added a virus to the 
    original file, repacked it and uploaded it again.

03- Letting anti-malware apps send scan results to their companies can cause
    keygens, patches, cracks, etc., to be added to their virus-database.

04- Firewalls which are set to automatically determine connections will allow 
    apps & malware!. Avoid this by manually configuring your firewall.

05- Usually (new) torrents with many downloads and seeders in a brief period is
    suspicious! Torrents with the Skull & Crossbones icon are trusted.

06- Some people use multiple accounts and post fake comments 
    and/or files trying to spread confusion. They seldom seriously
    comment or have any torrents, or a just a few to look passable.

07- Clicking on unknown links can cause malware to be installed on your machine.
  
08- In general often there are more fake and negative comments than reliable and
    positive comments.

09- In some countries uploading/downloading copyright protected material is 
    forbidden, but showing some appreciation to reliable up-loaders is not.

10- Posting fake and negative comments or fake/infected uploads on TPB can result
    in getting banned from TPB!

Requests?  Find me on SuprBay. http://forum.suprbay.org
 

For reporting bad or suspicious torrents:   
http://forum.suprbay.org/forumdisplay.php?fid=29

For more of my torrents:  
https://thepiratebay.org/user/big_dad_e/  (Secured)

All torrents scanned with:
Norton Anti-virus
Malwarebytes' Anti-malware
  
http://www.pirate-party.us/

ALWAYS SEED & THANKS SEEDERS!		